<?xml version="1.0" encoding="utf-8"?>
<!-- Generator: Adobe Illustrator 16.0.0, SVG Export Plug-In . SVG Version: 6.00 Build 0)  -->
<!DOCTYPE svg PUBLIC "-//W3C//DTD SVG 1.1//EN" "http://www.w3.org/Graphics/SVG/1.1/DTD/svg11.dtd">
<svg version="1.1" id="Layer_2" xmlns="http://www.w3.org/2000/svg" xmlns:xlink="http://www.w3.org/1999/xlink" x="0px" y="0px"
	 width="597.029px" height="132.61px" viewBox="7.471 331.562 597.029 132.61"
	 enable-background="new 7.471 331.562 597.029 132.61" xml:space="preserve">
<path fill="#22B5CE" d="M74.087,331.562c-36.732,0-66.616,29.884-66.616,66.616c0,36.732,29.884,65.994,66.616,65.994
	s66.617-29.884,66.617-66.616C140.704,361.447,110.82,331.562,74.087,331.562z M74.087,346.504c13.074,0,25.526,4.981,34.242,13.074
	c-15.564,4.358-27.394,13.697-35.487,25.526c-7.471-11.829-18.055-20.545-31.752-26.771
	C50.429,350.863,61.636,346.504,74.087,346.504z M55.41,446.118c-19.3-7.472-32.997-26.148-32.997-47.939c0-0.622,0-1.867,0-2.49
	c8.716,0.623,16.187,3.735,21.791,9.962C52.297,414.366,56.033,428.063,55.41,446.118z M61.636,414.989
	c-2.49-6.227-5.603-11.829-9.961-16.188c-7.471-8.094-16.81-12.452-28.016-13.074c1.868-6.849,4.98-13.074,9.339-18.678
	c15.564,6.226,26.771,15.564,34.242,29.884C64.749,401.914,62.881,408.141,61.636,414.989z M76.578,449.23c-0.623,0-1.868,0-2.49,0
	s-1.245,0-1.868,0c-1.868-14.319-1.868-27.394,1.245-37.978C75.955,422.46,77.2,434.911,76.578,449.23z M79.068,395.688
	c7.471-14.319,19.922-23.658,37.355-27.394c4.358,5.604,6.848,12.452,8.716,19.923c-13.697,0.623-24.281,5.603-31.751,13.696
	c-3.113,3.736-6.226,8.094-8.094,13.697C83.426,408.141,81.559,401.914,79.068,395.688z M91.52,446.118
	c-1.245-16.81,1.868-29.262,8.716-37.355c5.604-6.226,13.697-9.961,24.903-10.584C125.139,420.592,111.442,439.27,91.52,446.118z"/>
<g>
	<g>
		<polygon fill="#FFFFFF" points="186.152,438.024 186.152,360.201 232.846,360.201 232.846,372.653 201.095,372.653 
			201.095,392.576 225.998,392.576 225.998,405.027 201.095,405.027 201.095,438.024 		"/>
		<path fill="#FFFFFF" d="M231.601,361.447v9.338H199.85v23.036h24.903v9.339H199.85v32.996h-12.452v-74.709H231.601
			 M234.091,358.956h-2.49h-44.203h-2.491v2.491v75.333v2.49h2.491h12.452h2.49v-2.49v-30.507h22.413h2.49v-2.49v-9.339v-2.49h-2.49
			H202.34v-18.055h29.261h2.491v-2.491v-9.961L234.091,358.956L234.091,358.956z"/>
	</g>
	<g>
		<polygon fill="#FFFFFF" points="245.92,438.024 245.92,360.201 260.863,360.201 260.863,426.195 286.389,426.195 286.389,438.024 
					"/>
		<path fill="#FFFFFF" d="M259.618,361.447v65.994h25.526v9.339h-37.978v-75.333H259.618 M262.108,358.956h-2.49h-12.452h-2.491
			v2.491v75.333v2.49h2.491h37.978h2.49v-2.49v-9.339v-2.49h-2.49h-23.036v-63.503V358.956L262.108,358.956z"/>
	</g>
	<g>
		<path fill="#FFFFFF" d="M333.705,438.646c-11.207,0-20.545-3.735-28.017-11.206c-7.471-7.471-11.829-16.81-11.829-28.639
			s3.736-20.545,11.207-28.017c7.471-7.471,17.432-11.207,28.016-11.207s20.546,3.736,28.017,11.207
			c7.471,7.471,11.206,16.81,11.206,28.639c0,11.207-3.735,21.168-11.206,28.64C354.25,434.911,344.911,438.646,333.705,438.646z
			 M333.705,373.276c-7.471,0-13.074,2.49-17.433,6.848c-4.358,4.981-6.849,11.207-6.849,18.678c0,7.471,2.49,14.319,6.849,18.678
			c4.358,4.98,10.584,6.848,17.433,6.848c7.471,0,13.074-2.49,17.433-6.848c4.357-4.981,6.848-11.207,6.848-18.678
			c0-7.471-2.49-14.319-6.848-18.678C346.779,375.144,340.554,373.276,333.705,373.276z"/>
		<path fill="#FFFFFF" d="M333.705,360.824c10.584,0,19.923,3.735,27.394,10.583c7.471,7.471,11.206,16.188,11.206,27.394
			c0,11.206-3.735,20.545-11.206,27.394c-7.471,7.471-16.81,10.584-27.394,10.584s-19.923-3.735-27.394-10.584
			c-7.471-7.471-11.207-16.188-11.207-27.394c0-11.207,3.735-20.545,11.207-27.394C313.782,363.937,322.498,360.824,333.705,360.824
			 M333.705,426.195c7.471,0,13.696-2.49,18.678-7.471c4.98-4.981,7.471-11.829,7.471-19.923s-2.49-14.942-7.471-19.923
			c-4.981-4.98-11.207-7.471-18.678-7.471s-13.697,2.491-18.678,7.471s-7.471,11.829-7.471,19.923s2.49,14.941,7.471,19.923
			C320.008,423.705,325.611,426.195,333.705,426.195 M333.705,358.333c-11.207,0-21.168,3.736-29.262,11.829
			c-8.093,7.471-11.829,16.81-11.829,28.639s3.736,21.79,11.829,29.262c8.094,7.471,17.433,11.829,29.262,11.829
			c11.206,0,21.168-3.736,29.262-11.829c8.093-7.472,11.829-17.433,11.829-29.262s-3.735-21.791-11.829-29.262
			C354.873,362.069,344.911,358.333,333.705,358.333L333.705,358.333z M333.705,423.705c-6.849,0-12.452-2.49-16.81-6.849
			c-4.358-4.358-6.227-10.584-6.227-18.055c0-7.471,1.868-13.697,6.227-18.055c4.357-4.358,9.961-6.848,16.81-6.848
			s12.451,2.49,16.81,6.848c4.358,4.358,6.226,10.584,6.226,18.055c0,7.471-1.867,13.696-6.226,18.055
			C346.156,421.837,340.554,423.705,333.705,423.705L333.705,423.705z"/>
	</g>
	<g>
		<path fill="#FFFFFF" d="M422.112,438.646c-11.207,0-20.546-3.735-28.017-11.206s-11.829-16.81-11.829-28.639
			c0-11.207,3.735-21.168,11.829-28.639c7.471-7.471,17.433-11.207,28.017-11.207c8.093,0,15.564,1.868,21.79,6.226
			s11.207,9.961,14.319,17.432l0.623,1.868h-16.811l-0.622-0.623c-3.735-7.471-9.961-10.583-19.3-10.583
			c-7.472,0-13.074,2.49-17.433,6.848c-4.358,4.981-6.849,11.207-6.849,18.678c0,7.471,2.49,14.319,6.849,18.678
			c4.357,4.98,10.584,6.848,17.433,6.848c8.716,0,14.941-3.735,19.3-10.583l0.622-0.623h17.433l-0.622,1.868
			c-3.113,7.471-7.472,13.074-14.319,17.432C438.299,436.779,430.828,438.646,422.112,438.646z"/>
		<path fill="#FFFFFF" d="M422.112,360.824c8.093,0,14.941,1.868,21.167,5.603c6.227,3.735,10.584,9.339,13.697,16.81h-14.942
			c-4.357-7.471-10.583-11.207-19.922-11.207c-7.472,0-13.697,2.491-18.678,7.471c-4.98,4.981-7.472,11.829-7.472,19.922
			c0,8.094,2.491,14.942,7.472,19.923s11.206,7.472,18.678,7.472c9.339,0,16.187-3.736,19.922-11.207h14.942
			c-3.113,7.471-7.471,13.074-13.697,16.81c-6.226,3.735-13.074,5.604-21.167,5.604c-10.584,0-19.923-3.735-27.395-10.584
			c-7.471-7.471-11.206-16.188-11.206-27.394c0-11.207,3.735-20.545,11.206-27.394C402.812,363.937,411.528,360.824,422.112,360.824
			 M422.112,358.333c-11.207,0-21.168,3.736-29.262,11.829c-8.094,7.471-11.829,17.433-11.829,29.261
			c0,11.829,3.735,21.791,11.829,29.262s17.433,11.829,29.262,11.829c8.716,0,16.187-1.868,22.413-6.226
			c6.848-4.358,11.829-9.962,14.319-18.055l1.245-3.113h-3.735h-14.942h-1.245l-0.623,1.245c-3.735,6.849-9.339,9.961-18.055,9.961
			c-6.849,0-12.451-2.49-16.81-6.848c-4.358-4.358-6.226-10.584-6.226-18.056c0-7.471,1.867-13.696,6.226-18.055
			c4.358-4.358,9.961-6.848,16.81-6.848c8.716,0,14.319,3.113,18.055,9.961l0.623,1.245h1.245h14.942h3.735l-1.245-3.113
			c-3.113-7.471-8.094-13.697-14.319-18.055C438.299,360.201,430.828,358.333,422.112,358.333L422.112,358.333z"/>
	</g>
	<g>
		<polygon fill="#FFFFFF" points="516.744,438.024 489.351,406.272 489.351,438.024 474.409,438.024 474.409,360.201 
			489.351,360.201 489.351,392.576 516.744,360.201 536.045,360.201 501.18,399.424 536.667,438.024 		"/>
		<path fill="#FFFFFF" d="M533.555,361.447l-34.242,37.977l34.242,37.355h-16.188l-29.262-33.619v33.619h-12.451v-75.333h12.451
			v34.242l29.262-34.242H533.555 M539.157,358.956h-5.603h-16.188h-1.245l-0.622,0.623l-24.904,29.262v-27.394v-2.491h-2.49h-12.451
			h-2.49v2.491v75.333v2.49h2.49h12.451h2.49v-2.49v-26.771l24.904,28.639l0.622,0.623h1.245h16.188h5.603l-3.735-4.358
			l-32.374-36.109l32.374-35.487L539.157,358.956L539.157,358.956z"/>
	</g>
	<g>
		<path fill="#FFFFFF" d="M573.399,438.646c-8.093,0-14.941-1.867-19.922-5.603c-4.981-3.735-8.094-9.339-8.094-16.188v-1.245
			h15.564v1.245c0,3.113,1.245,5.604,3.112,6.849c1.868,1.867,4.981,2.49,8.717,2.49s6.849-1.245,9.339-3.113
			c1.867-1.867,3.112-4.357,3.112-6.848c0-2.491-0.622-4.981-1.867-6.227s-3.113-2.49-4.98-3.112
			c-2.491-0.623-4.981-1.245-7.472-2.49c-3.112-0.623-5.603-1.245-8.716-2.491c-3.113-0.622-5.604-1.867-8.094-3.735
			c-2.49-1.245-4.358-3.735-6.226-6.226c-1.868-3.113-2.49-6.226-2.49-10.584c0-6.848,2.49-12.452,7.471-16.81
			c4.98-4.358,11.206-6.226,19.3-6.226s14.319,1.868,18.678,5.604c4.98,3.735,7.471,9.339,8.094,16.187v1.245h-16.188v-1.245
			c0-2.49-1.245-4.98-3.112-6.226c-1.868-1.868-4.358-2.491-8.094-2.491c-3.113,0-6.227,0.623-8.094,2.491
			c-1.868,1.868-3.113,4.358-3.113,7.471c0,3.113,1.245,5.604,3.735,6.849c2.491,1.868,5.604,3.113,9.339,3.735
			s8.094,1.868,11.829,3.113c4.358,1.246,7.472,3.113,10.584,6.848c3.113,3.113,4.358,8.094,4.358,13.697s-2.49,11.207-7.471,15.564
			C588.342,436.779,581.493,438.646,573.399,438.646z"/>
		<path fill="#FFFFFF" d="M572.154,360.824c7.472,0,13.697,1.868,18.056,4.98c4.98,3.113,7.471,8.716,7.471,14.942h-13.697
			c0-3.113-1.245-5.603-3.735-7.471c-2.49-1.868-4.98-2.491-8.716-2.491s-6.849,1.245-8.717,3.113
			c-2.49,1.868-3.735,4.358-3.735,8.093c0,3.736,1.245,6.226,4.358,8.094c2.49,1.868,6.226,3.113,9.961,4.358
			c3.735,0.623,8.094,1.868,11.829,3.113c3.736,1.245,7.472,3.112,9.962,6.226s4.357,7.471,4.357,13.074s-2.49,10.584-6.848,14.942
			c-4.981,4.357-11.207,6.848-18.678,6.848c-8.094,0-14.319-1.867-19.3-5.603c-4.981-3.735-7.472-8.717-7.472-15.564h13.074
			c0,3.112,1.245,6.226,3.735,8.093c1.868,1.868,5.604,3.113,9.339,3.113c4.358,0,7.472-1.245,9.962-3.113
			c2.49-1.867,3.735-4.98,3.735-7.471s-0.623-4.98-2.49-6.849c-1.245-1.867-3.113-3.112-5.604-3.735
			c-2.49-0.622-4.98-1.867-7.471-2.49c-2.49-0.622-5.604-1.245-8.717-2.49c-3.112-0.623-5.603-1.868-8.093-3.113
			c-2.491-1.245-4.358-3.112-5.604-6.226c-1.245-2.49-2.49-5.603-2.49-9.961c0-6.848,2.49-11.829,6.848-15.564
			C558.458,362.692,564.684,360.824,572.154,360.824 M572.154,358.333c-8.094,0-14.941,2.491-19.922,6.849
			c-4.981,4.358-8.094,10.584-8.094,18.055c0,4.358,0.622,8.094,2.49,11.207c1.867,3.113,3.735,5.604,6.849,6.849
			c2.49,1.245,5.603,2.49,8.093,3.735c3.113,0.623,5.604,1.868,8.717,2.49c2.49,0.623,4.98,1.245,7.471,1.868
			c1.868,0.622,3.735,1.867,4.98,3.112c1.245,1.246,1.868,3.113,1.868,4.981c0,2.49-0.623,4.357-3.113,5.603
			c-1.867,1.868-4.98,2.49-8.094,2.49c-3.735,0-6.226-0.622-8.093-2.49c-1.868-1.245-2.491-3.735-3.113-6.226v-2.49h-2.49h-13.074
			h-2.49v2.49c0,7.471,3.112,13.074,8.094,17.433c5.603,3.735,12.451,6.226,20.545,6.226c8.716,0,15.564-2.49,20.545-7.471
			s8.094-10.584,8.094-16.81c0-6.227-1.867-11.207-4.98-14.32c-3.113-3.112-6.849-5.603-11.207-6.848
			c-3.735-1.245-8.093-1.868-11.829-3.113c-3.735-0.623-6.848-1.868-9.339-3.735c-1.867-1.245-3.112-3.113-3.112-6.226
			c0-3.113,0.622-4.98,2.49-6.226s4.358-2.49,7.471-2.49c3.113,0,5.604,0.623,6.849,2.49c1.868,1.245,2.49,3.113,3.113,5.603v2.49
			h2.49h14.319h2.49v-2.49c-0.622-7.471-3.113-13.074-8.716-16.81C587.097,360.201,580.248,358.333,572.154,358.333L572.154,358.333
			z"/>
	</g>
</g>
</svg>
