<?xml version="1.0" encoding="utf-8"?>
<!-- Generator: Adobe Illustrator 19.0.0, SVG Export Plug-In . SVG Version: 6.00 Build 0)  -->
<svg version="1.1" id="Layer_2" xmlns="http://www.w3.org/2000/svg" xmlns:xlink="http://www.w3.org/1999/xlink" x="0px" y="0px"
	 viewBox="0 0 98.3 22.1" style="enable-background:new 0 0 98.3 22.1;" xml:space="preserve">
<style type="text/css">
	.st0{fill:#22B5CE;}
	.st1{fill:#444444;}
</style>
<path class="st0" d="M11.9,0.7C6,0.7,1.2,5.5,1.2,11.4C1.2,17.3,6,22,11.9,22s10.7-4.8,10.7-10.7C22.6,5.5,17.8,0.7,11.9,0.7z
	 M11.9,3.1c2.1,0,4.1,0.8,5.5,2.1c-2.5,0.7-4.4,2.2-5.7,4.1C10.5,7.4,8.8,6,6.6,5C8.1,3.8,9.9,3.1,11.9,3.1z M8.9,19.1
	c-3.1-1.2-5.3-4.2-5.3-7.7c0-0.1,0-0.3,0-0.4c1.4,0.1,2.6,0.6,3.5,1.6C8.4,14,9,16.2,8.9,19.1z M9.9,14.1c-0.4-1-0.9-1.9-1.6-2.6
	c-1.2-1.3-2.7-2-4.5-2.1c0.3-1.1,0.8-2.1,1.5-3c2.5,1,4.3,2.5,5.5,4.8C10.4,12,10.1,13,9.9,14.1z M12.3,19.6c-0.1,0-0.3,0-0.4,0
	c-0.1,0-0.2,0-0.3,0c-0.3-2.3-0.3-4.4,0.2-6.1C12.2,15.3,12.4,17.3,12.3,19.6z M12.7,11c1.2-2.3,3.2-3.8,6-4.4
	c0.7,0.9,1.1,2,1.4,3.2c-2.2,0.1-3.9,0.9-5.1,2.2c-0.5,0.6-1,1.3-1.3,2.2C13.4,13,13.1,12,12.7,11z M14.7,19.1
	c-0.2-2.7,0.3-4.7,1.4-6c0.9-1,2.2-1.6,4-1.7C20.1,15,17.9,18,14.7,19.1z"/>
<g>
	<g>
		<polygon class="st1" points="29.9,17.8 29.9,5.3 37.4,5.3 37.4,7.3 32.3,7.3 32.3,10.5 36.3,10.5 36.3,12.5 32.3,12.5 32.3,17.8 
					"/>
		<path class="st1" d="M37.2,5.5v1.5h-5.1v3.7h4v1.5h-4v5.3h-2V5.5H37.2 M37.6,5.1h-0.4h-7.1h-0.4v0.4v12.1V18h0.4h2h0.4v-0.4v-4.9
			h3.6h0.4v-0.4v-1.5v-0.4h-0.4h-3.6V7.5h4.7h0.4V7.1V5.5V5.1L37.6,5.1z"/>
	</g>
	<g>
		<polygon class="st1" points="39.5,17.8 39.5,5.3 41.9,5.3 41.9,15.9 46,15.9 46,17.8 		"/>
		<path class="st1" d="M41.7,5.5v10.6h4.1v1.5h-6.1V5.5H41.7 M42.1,5.1h-0.4h-2h-0.4v0.4v12.1V18h0.4h6.1h0.4v-0.4v-1.5v-0.4h-0.4
			h-3.7V5.5V5.1L42.1,5.1z"/>
	</g>
	<g>
		<path class="st1" d="M53.6,17.9c-1.8,0-3.3-0.6-4.5-1.8c-1.2-1.2-1.9-2.7-1.9-4.6S47.8,8.2,49,7c1.2-1.2,2.8-1.8,4.5-1.8
			s3.3,0.6,4.5,1.8c1.2,1.2,1.8,2.7,1.8,4.6c0,1.8-0.6,3.4-1.8,4.6C56.9,17.3,55.4,17.9,53.6,17.9z M53.6,7.4
			c-1.2,0-2.1,0.4-2.8,1.1c-0.7,0.8-1.1,1.8-1.1,3s0.4,2.3,1.1,3c0.7,0.8,1.7,1.1,2.8,1.1c1.2,0,2.1-0.4,2.8-1.1
			c0.7-0.8,1.1-1.8,1.1-3s-0.4-2.3-1.1-3C55.7,7.7,54.7,7.4,53.6,7.4z"/>
		<path class="st1" d="M53.6,5.4c1.7,0,3.2,0.6,4.4,1.7c1.2,1.2,1.8,2.6,1.8,4.4c0,1.8-0.6,3.3-1.8,4.4c-1.2,1.2-2.7,1.7-4.4,1.7
			c-1.7,0-3.2-0.6-4.4-1.7c-1.2-1.2-1.8-2.6-1.8-4.4c0-1.8,0.6-3.3,1.8-4.4C50.4,5.9,51.8,5.4,53.6,5.4 M53.6,15.9
			c1.2,0,2.2-0.4,3-1.2s1.2-1.9,1.2-3.2c0-1.3-0.4-2.4-1.2-3.2c-0.8-0.8-1.8-1.2-3-1.2s-2.2,0.4-3,1.2c-0.8,0.8-1.2,1.9-1.2,3.2
			c0,1.3,0.4,2.4,1.2,3.2S52.3,15.9,53.6,15.9 M53.6,5c-1.8,0-3.4,0.6-4.7,1.9C47.6,8.1,47,9.6,47,11.5c0,1.9,0.6,3.5,1.9,4.7
			c1.3,1.2,2.8,1.9,4.7,1.9c1.8,0,3.4-0.6,4.7-1.9c1.3-1.2,1.9-2.8,1.9-4.7c0-1.9-0.6-3.5-1.9-4.7C57,5.6,55.4,5,53.6,5L53.6,5z
			 M53.6,15.5c-1.1,0-2-0.4-2.7-1.1c-0.7-0.7-1-1.7-1-2.9c0-1.2,0.3-2.2,1-2.9c0.7-0.7,1.6-1.1,2.7-1.1c1.1,0,2,0.4,2.7,1.1
			c0.7,0.7,1,1.7,1,2.9c0,1.2-0.3,2.2-1,2.9C55.6,15.2,54.7,15.5,53.6,15.5L53.6,15.5z"/>
	</g>
	<g>
		<path class="st1" d="M67.8,17.9c-1.8,0-3.3-0.6-4.5-1.8c-1.2-1.2-1.9-2.7-1.9-4.6c0-1.8,0.6-3.4,1.9-4.6c1.2-1.2,2.8-1.8,4.5-1.8
			c1.3,0,2.5,0.3,3.5,1c1,0.7,1.8,1.6,2.3,2.8l0.1,0.3H71l-0.1-0.1c-0.6-1.2-1.6-1.7-3.1-1.7c-1.2,0-2.1,0.4-2.8,1.1
			c-0.7,0.8-1.1,1.8-1.1,3s0.4,2.3,1.1,3c0.7,0.8,1.7,1.1,2.8,1.1c1.4,0,2.4-0.6,3.1-1.7l0.1-0.1h2.8l-0.1,0.3
			c-0.5,1.2-1.2,2.1-2.3,2.8C70.4,17.6,69.2,17.9,67.8,17.9z"/>
		<path class="st1" d="M67.8,5.4c1.3,0,2.4,0.3,3.4,0.9c1,0.6,1.7,1.5,2.2,2.7h-2.4c-0.7-1.2-1.7-1.8-3.2-1.8c-1.2,0-2.2,0.4-3,1.2
			c-0.8,0.8-1.2,1.9-1.2,3.2c0,1.3,0.4,2.4,1.2,3.2s1.8,1.2,3,1.2c1.5,0,2.6-0.6,3.2-1.8h2.4c-0.5,1.2-1.2,2.1-2.2,2.7
			c-1,0.6-2.1,0.9-3.4,0.9c-1.7,0-3.2-0.6-4.4-1.7c-1.2-1.2-1.8-2.6-1.8-4.4c0-1.8,0.6-3.3,1.8-4.4C64.7,5.9,66.1,5.4,67.8,5.4
			 M67.8,5c-1.8,0-3.4,0.6-4.7,1.9c-1.3,1.2-1.9,2.8-1.9,4.7c0,1.9,0.6,3.5,1.9,4.7c1.3,1.2,2.8,1.9,4.7,1.9c1.4,0,2.6-0.3,3.6-1
			c1.1-0.7,1.9-1.6,2.3-2.9l0.2-0.5h-0.6h-2.4h-0.2l-0.1,0.2c-0.6,1.1-1.5,1.6-2.9,1.6c-1.1,0-2-0.4-2.7-1.1c-0.7-0.7-1-1.7-1-2.9
			c0-1.2,0.3-2.2,1-2.9c0.7-0.7,1.6-1.1,2.7-1.1c1.4,0,2.3,0.5,2.9,1.6l0.1,0.2h0.2h2.4h0.6l-0.2-0.5c-0.5-1.2-1.3-2.2-2.3-2.9
			C70.4,5.3,69.2,5,67.8,5L67.8,5z"/>
	</g>
	<g>
		<polygon class="st1" points="83,17.8 78.6,12.7 78.6,17.8 76.2,17.8 76.2,5.3 78.6,5.3 78.6,10.5 83,5.3 86.1,5.3 80.5,11.6 
			86.2,17.8 		"/>
		<path class="st1" d="M85.7,5.5l-5.5,6.1l5.5,6h-2.6l-4.7-5.4v5.4h-2V5.5h2V11l4.7-5.5H85.7 M86.6,5.1h-0.9h-2.6h-0.2l-0.1,0.1
			l-4,4.7V5.5V5.1h-0.4h-2H76v0.4v12.1V18h0.4h2h0.4v-0.4v-4.3l4,4.6l0.1,0.1h0.2h2.6h0.9L86,17.3l-5.2-5.8L86,5.8L86.6,5.1
			L86.6,5.1z"/>
	</g>
	<g>
		<path class="st1" d="M92.1,17.9c-1.3,0-2.4-0.3-3.2-0.9c-0.8-0.6-1.3-1.5-1.3-2.6v-0.2h2.5l0,0.2c0,0.5,0.2,0.9,0.5,1.1
			c0.3,0.3,0.8,0.4,1.4,0.4s1.1-0.2,1.5-0.5c0.3-0.3,0.5-0.7,0.5-1.1c0-0.4-0.1-0.8-0.3-1c-0.2-0.2-0.5-0.4-0.8-0.5
			c-0.4-0.1-0.8-0.2-1.2-0.4c-0.5-0.1-0.9-0.2-1.4-0.4c-0.5-0.1-0.9-0.3-1.3-0.6c-0.4-0.2-0.7-0.6-1-1c-0.3-0.5-0.4-1-0.4-1.7
			c0-1.1,0.4-2,1.2-2.7c0.8-0.7,1.8-1,3.1-1c1.3,0,2.3,0.3,3,0.9c0.8,0.6,1.2,1.5,1.3,2.6l0,0.2h-2.6l0-0.2c0-0.4-0.2-0.8-0.5-1
			c-0.3-0.3-0.7-0.4-1.3-0.4c-0.5,0-1,0.1-1.3,0.4C90.2,7.8,90,8.2,90,8.7c0,0.5,0.2,0.9,0.6,1.1c0.4,0.3,0.9,0.5,1.5,0.6
			c0.6,0.1,1.3,0.3,1.9,0.5c0.7,0.2,1.2,0.5,1.7,1.1c0.5,0.5,0.7,1.3,0.7,2.2c0,0.9-0.4,1.8-1.2,2.5C94.5,17.6,93.4,17.9,92.1,17.9z
			"/>
		<path class="st1" d="M91.9,5.4c1.2,0,2.2,0.3,2.9,0.8C95.6,6.7,96,7.6,96,8.6h-2.2c0-0.5-0.2-0.9-0.6-1.2S92.4,7,91.8,7
			s-1.1,0.2-1.4,0.5c-0.4,0.3-0.6,0.7-0.6,1.3s0.2,1,0.7,1.3c0.4,0.3,1,0.5,1.6,0.7c0.6,0.1,1.3,0.3,1.9,0.5c0.6,0.2,1.2,0.5,1.6,1
			c0.4,0.5,0.7,1.2,0.7,2.1s-0.4,1.7-1.1,2.4c-0.8,0.7-1.8,1.1-3,1.1c-1.3,0-2.3-0.3-3.1-0.9c-0.8-0.6-1.2-1.4-1.2-2.5h2.1
			c0,0.5,0.2,1,0.6,1.3c0.3,0.3,0.9,0.5,1.5,0.5c0.7,0,1.2-0.2,1.6-0.5c0.4-0.3,0.6-0.8,0.6-1.2s-0.1-0.8-0.4-1.1
			c-0.2-0.3-0.5-0.5-0.9-0.6c-0.4-0.1-0.8-0.3-1.2-0.4s-0.9-0.2-1.4-0.4c-0.5-0.1-0.9-0.3-1.3-0.5s-0.7-0.5-0.9-1
			c-0.2-0.4-0.4-0.9-0.4-1.6c0-1.1,0.4-1.9,1.1-2.5C89.7,5.7,90.7,5.4,91.9,5.4 M91.9,5c-1.3,0-2.4,0.4-3.2,1.1
			c-0.8,0.7-1.3,1.7-1.3,2.9c0,0.7,0.1,1.3,0.4,1.8c0.3,0.5,0.6,0.9,1.1,1.1c0.4,0.2,0.9,0.4,1.3,0.6c0.5,0.1,0.9,0.3,1.4,0.4
			c0.4,0.1,0.8,0.2,1.2,0.3c0.3,0.1,0.6,0.3,0.8,0.5c0.2,0.2,0.3,0.5,0.3,0.8c0,0.4-0.1,0.7-0.5,0.9c-0.3,0.3-0.8,0.4-1.3,0.4
			c-0.6,0-1-0.1-1.3-0.4c-0.3-0.2-0.4-0.6-0.5-1l0-0.4h-0.4h-2.1h-0.4v0.4c0,1.2,0.5,2.1,1.3,2.8c0.9,0.6,2,1,3.3,1
			c1.4,0,2.5-0.4,3.3-1.2c0.8-0.8,1.3-1.7,1.3-2.7c0-1-0.3-1.8-0.8-2.3c-0.5-0.5-1.1-0.9-1.8-1.1c-0.6-0.2-1.3-0.3-1.9-0.5
			c-0.6-0.1-1.1-0.3-1.5-0.6c-0.3-0.2-0.5-0.5-0.5-1c0-0.5,0.1-0.8,0.4-1c0.3-0.2,0.7-0.4,1.2-0.4c0.5,0,0.9,0.1,1.1,0.4
			c0.3,0.2,0.4,0.5,0.5,0.9l0,0.4h0.4H96h0.4l0-0.4c-0.1-1.2-0.5-2.1-1.4-2.7C94.3,5.3,93.2,5,91.9,5L91.9,5z"/>
	</g>
</g>
</svg>
